<svg width="40" height="40" viewBox="0 0 40 40" fill="none" xmlns="http://www.w3.org/2000/svg">
<g clip-path="url(#clip0_1_543)">
<path d="M36.6666 8.63331L17.65 27.6666L10.5833 20.6L12.9333 18.25L17.65 22.9666L34.3166 6.29998L36.6666 8.63331ZM20 33.3333C12.65 33.3333 6.66665 27.35 6.66665 20C6.66665 12.65 12.65 6.66665 20 6.66665C22.6166 6.66665 25.0666 7.43331 27.1333 8.74998L29.55 6.33331C26.8333 4.44998 23.55 3.33331 20 3.33331C10.8 3.33331 3.33331 10.8 3.33331 20C3.33331 29.2 10.8 36.6666 20 36.6666C22.8833 36.6666 25.6 35.9333 27.9666 34.6333L25.4666 32.1333C23.8 32.9 21.95 33.3333 20 33.3333ZM31.6666 25H26.6666V28.3333H31.6666V33.3333H35V28.3333H40V25H35V20H31.6666V25Z" fill="#008AFF"/>
</g>
<defs>
<clipPath id="clip0_1_543">
<rect width="40" height="40" fill="white"/>
</clipPath>
</defs>
</svg>
