<svg width="251" height="233" viewBox="0 0 251 233" fill="none" xmlns="http://www.w3.org/2000/svg">
<ellipse cx="125.5" cy="175" rx="125.5" ry="58" fill="#D6D6D6" fill-opacity="0.5"/>
<g clip-path="url(#clip0_29_1117)">
<path d="M184.333 24.9999H149.5C146 15.3333 136.833 8.33325 126 8.33325C115.167 8.33325 106 15.3333 102.5 24.9999H67.6667C58.5 24.9999 51 32.4999 51 41.6666V158.333C51 167.5 58.5 175 67.6667 175H184.333C193.5 175 201 167.5 201 158.333V41.6666C201 32.4999 193.5 24.9999 184.333 24.9999ZM126 24.9999C130.583 24.9999 134.333 28.7499 134.333 33.3333C134.333 37.9166 130.583 41.6666 126 41.6666C121.417 41.6666 117.667 37.9166 117.667 33.3333C117.667 28.7499 121.417 24.9999 126 24.9999ZM142.667 141.667H84.3333V125H142.667V141.667ZM167.667 108.333H84.3333V91.6666H167.667V108.333ZM167.667 74.9999H84.3333V58.3333H167.667V74.9999Z" fill="#D6D6D6"/>
</g>
<defs>
<clipPath id="clip0_29_1117">
<rect width="200" height="200" fill="white" transform="translate(26)"/>
</clipPath>
</defs>
</svg>
