<svg width="45" height="45" viewBox="0 0 45 45" fill="none" xmlns="http://www.w3.org/2000/svg">
<g clip-path="url(#clip0_1_562)">
<path d="M35.625 5.625H27.7875C27 3.45 24.9375 1.875 22.5 1.875C20.0625 1.875 18 3.45 17.2125 5.625H9.375C7.3125 5.625 5.625 7.3125 5.625 9.375V35.625C5.625 37.6875 7.3125 39.375 9.375 39.375H35.625C37.6875 39.375 39.375 37.6875 39.375 35.625V9.375C39.375 7.3125 37.6875 5.625 35.625 5.625ZM22.5 5.625C23.5312 5.625 24.375 6.46875 24.375 7.5C24.375 8.53125 23.5312 9.375 22.5 9.375C21.4688 9.375 20.625 8.53125 20.625 7.5C20.625 6.46875 21.4688 5.625 22.5 5.625ZM26.25 31.875H13.125V28.125H26.25V31.875ZM31.875 24.375H13.125V20.625H31.875V24.375ZM31.875 16.875H13.125V13.125H31.875V16.875Z" fill="#008AFF"/>
</g>
<defs>
<clipPath id="clip0_1_562">
<rect width="45" height="45" fill="white"/>
</clipPath>
</defs>
</svg>
