<svg width="55" height="55" viewBox="0 0 55 55" fill="none" xmlns="http://www.w3.org/2000/svg">
<g clip-path="url(#clip0_24_844)">
<path d="M37.8125 27.4999C40.975 27.4999 43.5188 24.9333 43.5188 21.7708C43.5188 18.6083 40.975 16.0416 37.8125 16.0416C34.65 16.0416 32.0834 18.6083 32.0834 21.7708C32.0834 24.9333 34.65 27.4999 37.8125 27.4999ZM20.625 25.2083C24.4292 25.2083 27.4771 22.1374 27.4771 18.3333C27.4771 14.5291 24.4292 11.4583 20.625 11.4583C16.8209 11.4583 13.75 14.5291 13.75 18.3333C13.75 22.1374 16.8209 25.2083 20.625 25.2083ZM37.8125 32.0833C33.6188 32.0833 25.2084 34.1916 25.2084 38.3853V43.5416H50.4167V38.3853C50.4167 34.1916 42.0063 32.0833 37.8125 32.0833ZM20.625 29.7916C15.2855 29.7916 4.58337 32.4728 4.58337 37.8124V43.5416H20.625V38.3853C20.625 36.4374 21.3813 33.0228 26.0563 30.4333C24.0625 30.0208 22.1375 29.7916 20.625 29.7916Z" fill="white"/>
</g>
<defs>
<clipPath id="clip0_24_844">
<rect width="55" height="55" fill="white"/>
</clipPath>
</defs>
</svg>
